<svg width="512" height="512" viewBox="0 0 512 512" fill="none" xmlns="http://www.w3.org/2000/svg">
<path d="M248.349 460.908C239.797 459.321 230.607 454.909 155.095 416.129C62.5207 368.581 60.1519 366.862 70.0728 354.403C72.5453 351.301 107.901 331.762 111.047 331.762C111.752 331.762 139.551 345.788 172.817 362.936C262.282 409.04 249.355 409.081 339.53 362.388L400.984 330.57L418.954 339.86C444.933 353.297 450.257 360.494 441.378 370.194C438.402 373.449 281.077 455.733 271.996 458.789C266.647 460.585 253.144 461.799 248.349 460.908Z" fill="#868B85"/>
<path d="M244.923 353.875C238.828 352.549 230.83 348.623 153.722 309.056C61.5877 261.779 59.022 259.875 70.4098 247.221C76.3188 240.659 109.923 224.376 113.919 226.148C115.821 226.992 143.298 240.987 174.979 257.249C262.194 302.022 249.63 302.14 339.069 255.79C371.988 238.729 399.615 224.771 400.46 224.771C403.425 224.771 437.936 242.579 441.181 245.783C453.921 258.36 451.61 260.115 358.61 308.457C267.834 355.651 262.635 357.724 244.923 353.875Z" fill="#998468"/>
<path d="M239.86 245.891C228.57 241.908 74.6918 161.984 71.0894 158.232C58.727 145.344 61.3032 143.332 146.87 99.1266C249.055 46.3269 238.833 51.0668 252.092 50.3451C269.006 49.4186 269.488 49.6234 356.273 94.187C472.525 153.892 472.416 142.958 357.382 202.515C262.889 251.434 259.318 252.75 239.86 245.891Z" fill="#63805E"/>
<mask id="path-4-outside-1_109_2" maskUnits="userSpaceOnUse" x="67.5" y="65" width="369" height="390" fill="black">
<rect fill="white" x="67.5" y="65" width="369" height="390"/>
<path d="M87.27 71.38H133.06C145.093 71.38 154.403 74.4833 160.99 80.69C167.703 86.8967 171.06 95.3833 171.06 106.15C171.06 113.877 169.16 120.02 165.36 124.58C161.56 129.14 156.43 132.37 149.97 134.27V135.22C157.697 136.993 163.903 140.413 168.59 145.48C173.277 150.42 175.62 157.45 175.62 166.57C175.62 172.017 174.733 177.02 172.96 181.58C171.187 186.14 168.653 190.13 165.36 193.55C162.067 196.843 158.077 199.44 153.39 201.34C148.83 203.113 143.763 204 138.19 204H87.27V71.38ZM131.73 187.66C138.823 187.66 144.27 186.203 148.07 183.29C151.87 180.377 153.77 175.69 153.77 169.23V162.39C153.77 155.93 151.87 151.243 148.07 148.33C144.27 145.417 138.823 143.96 131.73 143.96H108.17V187.66H131.73ZM128.69 128.38C135.403 128.38 140.47 127.113 143.89 124.58C147.437 121.92 149.21 117.55 149.21 111.47V104.63C149.21 98.55 147.437 94.2433 143.89 91.71C140.47 89.05 135.403 87.72 128.69 87.72H108.17V128.38H128.69ZM235.776 204H214.686V71.38H264.276C276.942 71.38 286.569 74.9267 293.156 82.02C299.869 89.1133 303.226 98.8667 303.226 111.28C303.226 121.413 300.756 129.773 295.816 136.36C290.876 142.947 283.782 147 274.536 148.52L305.126 204H281.566L253.446 150.42H235.776V204ZM261.236 133.32C274.409 133.32 280.996 127.303 280.996 115.27V107.1C280.996 95.0667 274.409 89.05 261.236 89.05H235.776V133.32H261.236ZM382.952 206.28C374.592 206.28 367.308 204.76 361.102 201.72C355.022 198.553 349.955 194.057 345.902 188.23C341.975 182.403 339.062 175.247 337.162 166.76C335.262 158.273 334.312 148.583 334.312 137.69C334.312 126.923 335.262 117.297 337.162 108.81C339.062 100.197 341.975 92.9767 345.902 87.15C349.955 81.3233 355.022 76.89 361.102 73.85C367.308 70.6833 374.592 69.1 382.952 69.1C391.312 69.1 398.532 70.6833 404.612 73.85C410.818 76.89 415.885 81.3233 419.812 87.15C423.865 92.9767 426.842 100.197 428.742 108.81C430.642 117.297 431.592 126.923 431.592 137.69C431.592 148.583 430.642 158.273 428.742 166.76C426.842 175.247 423.865 182.403 419.812 188.23C415.885 194.057 410.818 198.553 404.612 201.72C398.532 204.76 391.312 206.28 382.952 206.28ZM382.952 188.61C392.452 188.61 399.165 185.063 403.092 177.97C407.018 170.75 408.982 160.997 408.982 148.71V126.48C408.982 114.32 407.018 104.693 403.092 97.6C399.165 90.38 392.452 86.77 382.952 86.77C373.452 86.77 366.738 90.38 362.812 97.6C358.885 104.693 356.922 114.32 356.922 126.48V148.9C356.922 161.06 358.885 170.75 362.812 177.97C366.738 185.063 373.452 188.61 382.952 188.61ZM182.08 451H157.95L142.94 424.78L128.88 399.7H127.74L113.3 424.78L97.72 451H75.11L115.77 382.98L77.58 318.38H101.71L115.2 342.13L128.88 366.64H129.83L143.51 342.13L157.57 318.38H180.18L141.8 382.98L182.08 451ZM283.276 387.54L283.846 347.64H282.326L255.726 415.85L229.126 347.64H227.606L228.176 387.54V451H209.366V318.38H235.396L255.726 371.01H257.056L277.576 318.38H302.086V451H283.276V387.54ZM346.472 451V318.38H367.752V433.14H428.172V451H346.472Z"/>
</mask>
<path d="M87.27 71.38H133.06C145.093 71.38 154.403 74.4833 160.99 80.69C167.703 86.8967 171.06 95.3833 171.06 106.15C171.06 113.877 169.16 120.02 165.36 124.58C161.56 129.14 156.43 132.37 149.97 134.27V135.22C157.697 136.993 163.903 140.413 168.59 145.48C173.277 150.42 175.62 157.45 175.62 166.57C175.62 172.017 174.733 177.02 172.96 181.58C171.187 186.14 168.653 190.13 165.36 193.55C162.067 196.843 158.077 199.44 153.39 201.34C148.83 203.113 143.763 204 138.19 204H87.27V71.38ZM131.73 187.66C138.823 187.66 144.27 186.203 148.07 183.29C151.87 180.377 153.77 175.69 153.77 169.23V162.39C153.77 155.93 151.87 151.243 148.07 148.33C144.27 145.417 138.823 143.96 131.73 143.96H108.17V187.66H131.73ZM128.69 128.38C135.403 128.38 140.47 127.113 143.89 124.58C147.437 121.92 149.21 117.55 149.21 111.47V104.63C149.21 98.55 147.437 94.2433 143.89 91.71C140.47 89.05 135.403 87.72 128.69 87.72H108.17V128.38H128.69ZM235.776 204H214.686V71.38H264.276C276.942 71.38 286.569 74.9267 293.156 82.02C299.869 89.1133 303.226 98.8667 303.226 111.28C303.226 121.413 300.756 129.773 295.816 136.36C290.876 142.947 283.782 147 274.536 148.52L305.126 204H281.566L253.446 150.42H235.776V204ZM261.236 133.32C274.409 133.32 280.996 127.303 280.996 115.27V107.1C280.996 95.0667 274.409 89.05 261.236 89.05H235.776V133.32H261.236ZM382.952 206.28C374.592 206.28 367.308 204.76 361.102 201.72C355.022 198.553 349.955 194.057 345.902 188.23C341.975 182.403 339.062 175.247 337.162 166.76C335.262 158.273 334.312 148.583 334.312 137.69C334.312 126.923 335.262 117.297 337.162 108.81C339.062 100.197 341.975 92.9767 345.902 87.15C349.955 81.3233 355.022 76.89 361.102 73.85C367.308 70.6833 374.592 69.1 382.952 69.1C391.312 69.1 398.532 70.6833 404.612 73.85C410.818 76.89 415.885 81.3233 419.812 87.15C423.865 92.9767 426.842 100.197 428.742 108.81C430.642 117.297 431.592 126.923 431.592 137.69C431.592 148.583 430.642 158.273 428.742 166.76C426.842 175.247 423.865 182.403 419.812 188.23C415.885 194.057 410.818 198.553 404.612 201.72C398.532 204.76 391.312 206.28 382.952 206.28ZM382.952 188.61C392.452 188.61 399.165 185.063 403.092 177.97C407.018 170.75 408.982 160.997 408.982 148.71V126.48C408.982 114.32 407.018 104.693 403.092 97.6C399.165 90.38 392.452 86.77 382.952 86.77C373.452 86.77 366.738 90.38 362.812 97.6C358.885 104.693 356.922 114.32 356.922 126.48V148.9C356.922 161.06 358.885 170.75 362.812 177.97C366.738 185.063 373.452 188.61 382.952 188.61ZM182.08 451H157.95L142.94 424.78L128.88 399.7H127.74L113.3 424.78L97.72 451H75.11L115.77 382.98L77.58 318.38H101.71L115.2 342.13L128.88 366.64H129.83L143.51 342.13L157.57 318.38H180.18L141.8 382.98L182.08 451ZM283.276 387.54L283.846 347.64H282.326L255.726 415.85L229.126 347.64H227.606L228.176 387.54V451H209.366V318.38H235.396L255.726 371.01H257.056L277.576 318.38H302.086V451H283.276V387.54ZM346.472 451V318.38H367.752V433.14H428.172V451H346.472Z" fill="#0F0F0F"/>
<path d="M87.27 71.38V67.38H83.27V71.38H87.27ZM160.99 80.69L158.247 83.6012L158.261 83.6142L158.275 83.6271L160.99 80.69ZM165.36 124.58L162.287 122.019V122.019L165.36 124.58ZM149.97 134.27L148.841 130.433L145.97 131.277V134.27H149.97ZM149.97 135.22H145.97V138.406L149.075 139.119L149.97 135.22ZM168.59 145.48L165.654 148.196L165.671 148.215L165.688 148.233L168.59 145.48ZM165.36 193.55L168.188 196.378L168.215 196.352L168.241 196.325L165.36 193.55ZM153.39 201.34L154.84 205.068L154.866 205.058L154.893 205.047L153.39 201.34ZM87.27 204H83.27V208H87.27V204ZM148.07 183.29L145.636 180.116V180.116L148.07 183.29ZM108.17 143.96V139.96H104.17V143.96H108.17ZM108.17 187.66H104.17V191.66H108.17V187.66ZM143.89 124.58L146.271 127.794L146.28 127.787L146.29 127.78L143.89 124.58ZM143.89 91.71L141.434 94.8674L141.499 94.9175L141.565 94.9649L143.89 91.71ZM108.17 87.72V83.72H104.17V87.72H108.17ZM108.17 128.38H104.17V132.38H108.17V128.38ZM87.27 71.38V75.38H133.06V71.38V67.38H87.27V71.38ZM133.06 71.38V75.38C144.418 75.38 152.62 78.2989 158.247 83.6012L160.99 80.69L163.733 77.7788C156.187 70.6678 145.769 67.38 133.06 67.38V71.38ZM160.99 80.69L158.275 83.6271C164.023 88.9415 167.06 96.2827 167.06 106.15H171.06H175.06C175.06 94.484 171.384 84.8518 163.705 77.7529L160.99 80.69ZM171.06 106.15H167.06C167.06 113.227 165.327 118.371 162.287 122.019L165.36 124.58L168.433 127.141C172.993 121.669 175.06 114.526 175.06 106.15H171.06ZM165.36 124.58L162.287 122.019C159.061 125.891 154.647 128.725 148.841 130.433L149.97 134.27L151.099 138.107C158.213 136.015 164.059 132.389 168.433 127.141L165.36 124.58ZM149.97 134.27H145.97V135.22H149.97H153.97V134.27H149.97ZM149.97 135.22L149.075 139.119C156.138 140.74 161.591 143.804 165.654 148.196L168.59 145.48L171.526 142.764C166.215 137.022 159.255 133.247 150.865 131.321L149.97 135.22ZM168.59 145.48L165.688 148.233C169.458 152.207 171.62 158.119 171.62 166.57H175.62H179.62C179.62 156.781 177.095 148.633 171.492 142.727L168.59 145.48ZM175.62 166.57H171.62C171.62 171.577 170.806 176.082 169.232 180.13L172.96 181.58L176.688 183.03C178.66 177.958 179.62 172.457 179.62 166.57H175.62ZM172.96 181.58L169.232 180.13C167.645 184.212 165.394 187.748 162.479 190.775L165.36 193.55L168.241 196.325C171.913 192.512 174.729 188.068 176.688 183.03L172.96 181.58ZM165.36 193.55L162.532 190.722C159.648 193.605 156.121 195.917 151.887 197.633L153.39 201.34L154.893 205.047C160.033 202.963 164.485 200.082 168.188 196.378L165.36 193.55ZM153.39 201.34L151.94 197.612C147.902 199.182 143.336 200 138.19 200V204V208C144.191 208 149.758 207.044 154.84 205.068L153.39 201.34ZM138.19 204V200H87.27V204V208H138.19V204ZM87.27 204H91.27V71.38H87.27H83.27V204H87.27ZM131.73 187.66V191.66C139.298 191.66 145.74 190.116 150.504 186.464L148.07 183.29L145.636 180.116C142.8 182.29 138.349 183.66 131.73 183.66V187.66ZM148.07 183.29L150.504 186.464C155.611 182.549 157.77 176.467 157.77 169.23H153.77H149.77C149.77 174.913 148.129 178.204 145.636 180.116L148.07 183.29ZM153.77 169.23H157.77V162.39H153.77H149.77V169.23H153.77ZM153.77 162.39H157.77C157.77 155.153 155.611 149.071 150.504 145.156L148.07 148.33L145.636 151.504C148.129 153.416 149.77 156.707 149.77 162.39H153.77ZM148.07 148.33L150.504 145.156C145.74 141.504 139.298 139.96 131.73 139.96V143.96V147.96C138.349 147.96 142.8 149.33 145.636 151.504L148.07 148.33ZM131.73 143.96V139.96H108.17V143.96V147.96H131.73V143.96ZM108.17 143.96H104.17V187.66H108.17H112.17V143.96H108.17ZM108.17 187.66V191.66H131.73V187.66V183.66H108.17V187.66ZM128.69 128.38V132.38C135.8 132.38 141.866 131.057 146.271 127.794L143.89 124.58L141.509 121.366C139.074 123.17 135.006 124.38 128.69 124.38V128.38ZM143.89 124.58L146.29 127.78C151.187 124.107 153.21 118.307 153.21 111.47H149.21H145.21C145.21 116.793 143.686 119.733 141.49 121.38L143.89 124.58ZM149.21 111.47H153.21V104.63H149.21H145.21V111.47H149.21ZM149.21 104.63H153.21C153.21 97.8072 151.192 92.0098 146.215 88.4551L143.89 91.71L141.565 94.9649C143.682 96.4769 145.21 99.2928 145.21 104.63H149.21ZM143.89 91.71L146.346 88.5526C141.931 85.1187 135.832 83.72 128.69 83.72V87.72V91.72C134.974 91.72 139.009 92.9813 141.434 94.8674L143.89 91.71ZM128.69 87.72V83.72H108.17V87.72V91.72H128.69V87.72ZM108.17 87.72H104.17V128.38H108.17H112.17V87.72H108.17ZM108.17 128.38V132.38H128.69V128.38V124.38H108.17V128.38ZM235.776 204V208H239.776V204H235.776ZM214.686 204H210.686V208H214.686V204ZM214.686 71.38V67.38H210.686V71.38H214.686ZM293.156 82.02L290.225 84.7418L290.238 84.7557L290.251 84.7695L293.156 82.02ZM295.816 136.36L299.016 138.76V138.76L295.816 136.36ZM274.536 148.52L273.887 144.573L268.298 145.492L271.033 150.451L274.536 148.52ZM305.126 204V208H311.899L308.629 202.069L305.126 204ZM281.566 204L278.024 205.859L279.148 208H281.566V204ZM253.446 150.42L256.988 148.561L255.864 146.42H253.446V150.42ZM235.776 150.42V146.42H231.776V150.42H235.776ZM235.776 89.05V85.05H231.776V89.05H235.776ZM235.776 133.32H231.776V137.32H235.776V133.32ZM235.776 204V200H214.686V204V208H235.776V204ZM214.686 204H218.686V71.38H214.686H210.686V204H214.686ZM214.686 71.38V75.38H264.276V71.38V67.38H214.686V71.38ZM264.276 71.38V75.38C276.191 75.38 284.61 78.6951 290.225 84.7418L293.156 82.02L296.087 79.2982C288.528 71.1583 277.694 67.38 264.276 67.38V71.38ZM293.156 82.02L290.251 84.7695C296.085 90.9339 299.226 99.6007 299.226 111.28H303.226H307.226C307.226 98.1326 303.653 87.2927 296.061 79.2705L293.156 82.02ZM303.226 111.28H299.226C299.226 120.752 296.926 128.213 292.616 133.96L295.816 136.36L299.016 138.76C304.585 131.334 307.226 122.075 307.226 111.28H303.226ZM295.816 136.36L292.616 133.96C288.381 139.606 282.268 143.195 273.887 144.573L274.536 148.52L275.185 152.467C285.297 150.805 293.37 146.288 299.016 138.76L295.816 136.36ZM274.536 148.52L271.033 150.451L301.623 205.931L305.126 204L308.629 202.069L278.039 146.589L274.536 148.52ZM305.126 204V200H281.566V204V208H305.126V204ZM281.566 204L285.108 202.141L256.988 148.561L253.446 150.42L249.904 152.279L278.024 205.859L281.566 204ZM253.446 150.42V146.42H235.776V150.42V154.42H253.446V150.42ZM235.776 150.42H231.776V204H235.776H239.776V150.42H235.776ZM261.236 133.32V137.32C268.354 137.32 274.439 135.702 278.754 131.761C283.137 127.757 284.996 122.001 284.996 115.27H280.996H276.996C276.996 120.572 275.561 123.842 273.358 125.854C271.086 127.929 267.291 129.32 261.236 129.32V133.32ZM280.996 115.27H284.996V107.1H280.996H276.996V115.27H280.996ZM280.996 107.1H284.996C284.996 100.369 283.137 94.6132 278.754 90.6092C274.439 86.6678 268.354 85.05 261.236 85.05V89.05V93.05C267.291 93.05 271.086 94.4405 273.358 96.5158C275.561 98.5285 276.996 101.798 276.996 107.1H280.996ZM261.236 89.05V85.05H235.776V89.05V93.05H261.236V89.05ZM235.776 89.05H231.776V133.32H235.776H239.776V89.05H235.776ZM235.776 133.32V137.32H261.236V133.32V129.32H235.776V133.32ZM361.102 201.72L359.254 205.268L359.298 205.29L359.342 205.312L361.102 201.72ZM345.902 188.23L342.585 190.465L342.601 190.49L342.618 190.514L345.902 188.23ZM337.162 166.76L341.065 165.886V165.886L337.162 166.76ZM337.162 108.81L341.065 109.684L341.068 109.672L337.162 108.81ZM345.902 87.15L342.618 84.8657L342.601 84.89L342.585 84.9146L345.902 87.15ZM361.102 73.85L362.89 77.4277L362.905 77.4204L362.919 77.413L361.102 73.85ZM404.612 73.85L402.764 77.3976L402.808 77.4205L402.852 77.4422L404.612 73.85ZM419.812 87.15L416.495 89.3854L416.511 89.41L416.528 89.4343L419.812 87.15ZM428.742 108.81L424.835 109.672L424.838 109.684L428.742 108.81ZM428.742 166.76L424.838 165.886V165.886L428.742 166.76ZM419.812 188.23L416.528 185.946L416.511 185.97L416.495 185.995L419.812 188.23ZM404.612 201.72L406.4 205.298L406.415 205.29L406.429 205.283L404.612 201.72ZM403.092 177.97L406.591 179.907L406.598 179.894L406.605 179.881L403.092 177.97ZM403.092 97.6L399.578 99.5111L399.585 99.5242L399.592 99.5373L403.092 97.6ZM362.812 97.6L366.311 99.5373L366.318 99.5242L366.326 99.5111L362.812 97.6ZM362.812 177.97L359.298 179.881L359.305 179.894L359.312 179.907L362.812 177.97ZM382.952 206.28V202.28C375.075 202.28 368.417 200.849 362.861 198.128L361.102 201.72L359.342 205.312C366.199 208.671 374.108 210.28 382.952 210.28V206.28ZM361.102 201.72L362.949 198.172C357.464 195.315 352.883 191.261 349.185 185.946L345.902 188.23L342.618 190.514C347.027 196.852 352.579 201.791 359.254 205.268L361.102 201.72ZM345.902 188.23L349.219 185.995C345.628 180.667 342.881 173.998 341.065 165.886L337.162 166.76L333.258 167.634C335.242 176.495 338.322 184.14 342.585 190.465L345.902 188.23ZM337.162 166.76L341.065 165.886C339.243 157.748 338.312 148.36 338.312 137.69H334.312H330.312C330.312 148.807 331.28 158.799 333.258 167.634L337.162 166.76ZM334.312 137.69H338.312C338.312 127.151 339.242 117.825 341.065 109.684L337.162 108.81L333.258 107.936C331.281 116.768 330.312 126.696 330.312 137.69H334.312ZM337.162 108.81L341.068 109.672C342.886 101.429 345.634 94.7038 349.219 89.3854L345.902 87.15L342.585 84.9146C338.315 91.2495 335.237 98.9647 333.255 107.948L337.162 108.81ZM345.902 87.15L349.185 89.4343C352.874 84.1318 357.436 80.155 362.89 77.4277L361.102 73.85L359.313 70.2723C352.607 73.625 347.036 78.5148 342.618 84.8657L345.902 87.15ZM361.102 73.85L362.919 77.413C368.461 74.5855 375.098 73.1 382.952 73.1V69.1V65.1C374.085 65.1 366.155 66.7811 359.284 70.2869L361.102 73.85ZM382.952 69.1V73.1C390.808 73.1 397.366 74.5865 402.764 77.3976L404.612 73.85L406.459 70.3023C399.697 66.7801 391.815 65.1 382.952 65.1V69.1ZM404.612 73.85L402.852 77.4422C408.419 80.1688 412.952 84.1294 416.495 89.3854L419.812 87.15L423.129 84.9146C418.817 78.5172 413.218 73.6112 406.371 70.2577L404.612 73.85ZM419.812 87.15L416.528 89.4343C420.22 94.7416 423.022 101.449 424.835 109.672L428.742 108.81L432.648 107.948C430.662 98.9445 427.51 91.2118 423.095 84.8657L419.812 87.15ZM428.742 108.81L424.838 109.684C426.661 117.825 427.592 127.151 427.592 137.69H431.592H435.592C435.592 126.696 434.622 116.768 432.645 107.936L428.742 108.81ZM431.592 137.69H427.592C427.592 148.36 426.66 157.748 424.838 165.886L428.742 166.76L432.645 167.634C434.623 158.799 435.592 148.807 435.592 137.69H431.592ZM428.742 166.76L424.838 165.886C423.027 173.978 420.227 180.629 416.528 185.946L419.812 188.23L423.095 190.514C427.503 184.178 430.656 176.516 432.645 167.634L428.742 166.76ZM419.812 188.23L416.495 185.995C412.944 191.264 408.391 195.301 402.794 198.157L404.612 201.72L406.429 205.283C413.246 201.805 418.826 196.85 423.129 190.465L419.812 188.23ZM404.612 201.72L402.823 198.142C397.411 200.848 390.831 202.28 382.952 202.28V206.28V210.28C391.792 210.28 399.652 208.672 406.4 205.298L404.612 201.72ZM382.952 188.61V192.61C393.607 192.61 401.826 188.516 406.591 179.907L403.092 177.97L399.592 176.033C396.504 181.611 391.296 184.61 382.952 184.61V188.61ZM403.092 177.97L406.605 179.881C410.97 171.855 412.982 161.359 412.982 148.71H408.982H404.982C404.982 160.634 403.066 169.645 399.578 176.059L403.092 177.97ZM408.982 148.71H412.982V126.48H408.982H404.982V148.71H408.982ZM408.982 126.48H412.982C412.982 113.955 410.97 103.573 406.591 95.6627L403.092 97.6L399.592 99.5373C403.067 105.814 404.982 114.685 404.982 126.48H408.982ZM403.092 97.6L406.605 95.6889C401.856 86.9558 393.641 82.77 382.952 82.77V86.77V90.77C391.262 90.77 396.474 93.8042 399.578 99.5111L403.092 97.6ZM382.952 86.77V82.77C372.262 82.77 364.047 86.9558 359.298 95.6889L362.812 97.6L366.326 99.5111C369.429 93.8042 374.641 90.77 382.952 90.77V86.77ZM362.812 97.6L359.312 95.6627C354.933 103.573 352.922 113.955 352.922 126.48H356.922H360.922C360.922 114.685 362.837 105.814 366.311 99.5373L362.812 97.6ZM356.922 126.48H352.922V148.9H356.922H360.922V126.48H356.922ZM356.922 148.9H352.922C352.922 161.431 354.935 171.86 359.298 179.881L362.812 177.97L366.326 176.059C362.835 169.64 360.922 160.689 360.922 148.9H356.922ZM362.812 177.97L359.312 179.907C364.077 188.516 372.296 192.61 382.952 192.61V188.61V184.61C374.607 184.61 369.399 181.611 366.311 176.033L362.812 177.97ZM182.08 451V455H189.097L185.522 448.962L182.08 451ZM157.95 451L154.479 452.987L155.631 455H157.95V451ZM142.94 424.78L139.451 426.736L139.46 426.752L139.469 426.767L142.94 424.78ZM128.88 399.7L132.369 397.744L131.223 395.7H128.88V399.7ZM127.74 399.7V395.7H125.427L124.274 397.704L127.74 399.7ZM113.3 424.78L116.739 426.823L116.753 426.8L116.766 426.776L113.3 424.78ZM97.72 451V455H99.9961L101.159 453.043L97.72 451ZM75.11 451L71.6766 448.948L68.0588 455H75.11V451ZM115.77 382.98L119.203 385.032L120.423 382.991L119.213 380.944L115.77 382.98ZM77.58 318.38V314.38H70.5686L74.1367 320.416L77.58 318.38ZM101.71 318.38L105.188 316.404L104.038 314.38H101.71V318.38ZM115.2 342.13L118.693 340.181L118.685 340.167L118.678 340.154L115.2 342.13ZM128.88 366.64L125.387 368.589L126.532 370.64H128.88V366.64ZM129.83 366.64V370.64H132.178L133.323 368.589L129.83 366.64ZM143.51 342.13L140.068 340.092L140.042 340.136L140.017 340.181L143.51 342.13ZM157.57 318.38V314.38H155.29L154.128 316.342L157.57 318.38ZM180.18 318.38L183.619 320.423L187.209 314.38H180.18V318.38ZM141.8 382.98L138.361 380.937L137.149 382.977L138.358 385.018L141.8 382.98ZM182.08 451V447H157.95V451V455H182.08V451ZM157.95 451L161.421 449.013L146.411 422.793L142.94 424.78L139.469 426.767L154.479 452.987L157.95 451ZM142.94 424.78L146.429 422.824L132.369 397.744L128.88 399.7L125.391 401.656L139.451 426.736L142.94 424.78ZM128.88 399.7V395.7H127.74V399.7V403.7H128.88V399.7ZM127.74 399.7L124.274 397.704L109.834 422.784L113.3 424.78L116.766 426.776L131.206 401.696L127.74 399.7ZM113.3 424.78L109.861 422.737L94.2813 448.957L97.72 451L101.159 453.043L116.739 426.823L113.3 424.78ZM97.72 451V447H75.11V451V455H97.72V451ZM75.11 451L78.5434 453.052L119.203 385.032L115.77 382.98L112.337 380.928L71.6766 448.948L75.11 451ZM115.77 382.98L119.213 380.944L81.0233 316.344L77.58 318.38L74.1367 320.416L112.327 385.016L115.77 382.98ZM77.58 318.38V322.38H101.71V318.38V314.38H77.58V318.38ZM101.71 318.38L98.2319 320.356L111.722 344.106L115.2 342.13L118.678 340.154L105.188 316.404L101.71 318.38ZM115.2 342.13L111.707 344.079L125.387 368.589L128.88 366.64L132.373 364.691L118.693 340.181L115.2 342.13ZM128.88 366.64V370.64H129.83V366.64V362.64H128.88V366.64ZM129.83 366.64L133.323 368.589L147.003 344.079L143.51 342.13L140.017 340.181L126.337 364.691L129.83 366.64ZM143.51 342.13L146.952 344.168L161.012 320.418L157.57 318.38L154.128 316.342L140.068 340.092L143.51 342.13ZM157.57 318.38V322.38H180.18V318.38V314.38H157.57V318.38ZM180.18 318.38L176.741 316.337L138.361 380.937L141.8 382.98L145.239 385.023L183.619 320.423L180.18 318.38ZM141.8 382.98L138.358 385.018L178.638 453.038L182.08 451L185.522 448.962L145.242 380.942L141.8 382.98ZM283.276 387.54L279.276 387.483L279.276 387.511V387.54H283.276ZM283.846 347.64L287.845 347.697L287.903 343.64H283.846V347.64ZM282.326 347.64V343.64H279.592L278.599 346.187L282.326 347.64ZM255.726 415.85L251.999 417.303L255.726 426.859L259.452 417.303L255.726 415.85ZM229.126 347.64L232.852 346.187L231.859 343.64H229.126V347.64ZM227.606 347.64V343.64H223.548L223.606 347.697L227.606 347.64ZM228.176 387.54H232.176V387.511L232.175 387.483L228.176 387.54ZM228.176 451V455H232.176V451H228.176ZM209.366 451H205.366V455H209.366V451ZM209.366 318.38V314.38H205.366V318.38H209.366ZM235.396 318.38L239.127 316.939L238.139 314.38H235.396V318.38ZM255.726 371.01L251.994 372.451L252.983 375.01H255.726V371.01ZM257.056 371.01V375.01H259.789L260.783 372.463L257.056 371.01ZM277.576 318.38V314.38H274.842L273.849 316.927L277.576 318.38ZM302.086 318.38H306.086V314.38H302.086V318.38ZM302.086 451V455H306.086V451H302.086ZM283.276 451H279.276V455H283.276V451ZM283.276 387.54L287.275 387.597L287.845 347.697L283.846 347.64L279.846 347.583L279.276 387.483L283.276 387.54ZM283.846 347.64V343.64H282.326V347.64V351.64H283.846V347.64ZM282.326 347.64L278.599 346.187L251.999 414.397L255.726 415.85L259.452 417.303L286.052 349.093L282.326 347.64ZM255.726 415.85L259.452 414.397L232.852 346.187L229.126 347.64L225.399 349.093L251.999 417.303L255.726 415.85ZM229.126 347.64V343.64H227.606V347.64V351.64H229.126V347.64ZM227.606 347.64L223.606 347.697L224.176 387.597L228.176 387.54L232.175 387.483L231.605 347.583L227.606 347.64ZM228.176 387.54H224.176V451H228.176H232.176V387.54H228.176ZM228.176 451V447H209.366V451V455H228.176V451ZM209.366 451H213.366V318.38H209.366H205.366V451H209.366ZM209.366 318.38V322.38H235.396V318.38V314.38H209.366V318.38ZM235.396 318.38L231.664 319.821L251.994 372.451L255.726 371.01L259.457 369.569L239.127 316.939L235.396 318.38ZM255.726 371.01V375.01H257.056V371.01V367.01H255.726V371.01ZM257.056 371.01L260.783 372.463L281.303 319.833L277.576 318.38L273.849 316.927L253.329 369.557L257.056 371.01ZM277.576 318.38V322.38H302.086V318.38V314.38H277.576V318.38ZM302.086 318.38H298.086V451H302.086H306.086V318.38H302.086ZM302.086 451V447H283.276V451V455H302.086V451ZM283.276 451H287.276V387.54H283.276H279.276V451H283.276ZM346.472 451H342.472V455H346.472V451ZM346.472 318.38V314.38H342.472V318.38H346.472ZM367.752 318.38H371.752V314.38H367.752V318.38ZM367.752 433.14H363.752V437.14H367.752V433.14ZM428.172 433.14H432.172V429.14H428.172V433.14ZM428.172 451V455H432.172V451H428.172ZM346.472 451H350.472V318.38H346.472H342.472V451H346.472ZM346.472 318.38V322.38H367.752V318.38V314.38H346.472V318.38ZM367.752 318.38H363.752V433.14H367.752H371.752V318.38H367.752ZM367.752 433.14V437.14H428.172V433.14V429.14H367.752V433.14ZM428.172 433.14H424.172V451H428.172H432.172V433.14H428.172ZM428.172 451V447H346.472V451V455H428.172V451Z" fill="#63805E" mask="url(#path-4-outside-1_109_2)"/>
</svg>
